<svg width="24" height="24" viewBox="0 0 24 24" fill="none" xmlns="http://www.w3.org/2000/svg">
<path d="M16 7.99979V6.99979C16 4.79065 14.2091 2.99979 12 2.99979V2.99979C9.79086 2.99979 8 4.79065 8 6.99979V7.99979" stroke="#BEC1D1" stroke-width="2" stroke-linecap="round"/>
<path d="M15 6.99979C17.8284 6.99979 19.2424 7.00001 20.1211 7.87869C20.9998 8.75737 21 10.1714 21 12.9998V13.9998C21 17.771 20.9997 19.6563 19.8281 20.8279C18.6566 21.9995 16.7712 21.9998 13 21.9998H11C7.22876 21.9998 5.34345 21.9995 4.17188 20.8279C3.0003 19.6563 3 17.771 3 13.9998V12.9998C3 10.1714 3.00023 8.75737 3.87891 7.87869C4.75759 7.00001 6.17157 6.99979 9 6.99979H15ZM12 10.9998C10.3431 10.9998 9 12.3429 9 13.9998C9 15.3055 9.83548 16.4128 11 16.825V18.9998H13V16.825C14.1645 16.4128 15 15.3055 15 13.9998C15 12.3429 13.6569 10.9998 12 10.9998ZM12 12.9998C12.5523 12.9998 13 13.4475 13 13.9998C13 14.5521 12.5523 14.9998 12 14.9998C11.4477 14.9998 11 14.5521 11 13.9998C11 13.4475 11.4477 12.9998 12 12.9998Z" fill="#BEC1D1"/>
</svg>
